Coordinates
version=1
nRows=5
nColumns=63
inDegrees=yes

Units are S.I. units (second, meters, Newtons, ...)
If the header above contains a line with 'inDegrees', this indicates whether rotational values are in degrees (yes) or radians (no).

endheader
time	pelvis_tilt	pelvis_list	pelvis_rotation	pelvis_tx	pelvis_ty	pelvis_tz	hip_flexion_r	hip_adduction_r	hip_rotation_r	knee_angle_r	knee_angle_r_beta	ankle_angle_r	subtalar_angle_r	mtp_angle_r	hip_flexion_l	hip_adduction_l	hip_rotation_l	knee_angle_l	knee_angle_l_beta	ankle_angle_l	subtalar_angle_l	mtp_angle_l	L5_S1_Flex_Ext	L5_S1_Lat_Bending	L5_S1_axial_rotation	L4_L5_Flex_Ext	L4_L5_Lat_Bending	L4_L5_axial_rotation	L3_L4_Flex_Ext	L3_L4_Lat_Bending	L3_L4_axial_rotation	L2_L3_Flex_Ext	L2_L3_Lat_Bending	L2_L3_axial_rotation	L1_L2_Flex_Ext	L1_L2_Lat_Bending	L1_L2_axial_rotation	L1_T12_Flex_Ext	L1_T12_Lat_Bending	L1_T12_axial_rotation	Abs_r3	Abs_r2	Abs_r1	Abs_t1	Abs_t2	neck_flexion	neck_bending	neck_rotation	arm_flex_r	arm_add_r	arm_rot_r	elbow_flex_r	pro_sup_r	wrist_flex_r	wrist_dev_r	arm_flex_l	arm_add_l	arm_rot_l	elbow_flex_l	pro_sup_l	wrist_flex_l	wrist_dev_l
      0.82000000	      0.38720124	     -4.81175694	     92.14582154	      0.23665372	      1.20340809	      0.32952399	     -6.92300398	     -0.71557532	     13.61620116	      2.80974220	      0.04903925	     19.93767163	     -2.28614690	      0.00000000	     -5.76999487	     -2.38219140	     -8.78154582	      4.86144279	      0.08484818	     19.62100329	     10.78036456	      0.00000000	     -0.01171772	      0.14789956	      1.81026713	     -0.02176098	      0.19670642	      1.92340883	     -0.01925104	      0.35960300	      1.92340883	     -0.01339218	      0.35960300	      1.58398374	     -0.01088107	      0.30159679	      1.47084205	     -0.00669550	      0.22909642	      1.35770035	     -0.08369849	      1.67306944	     10.06816272	      0.00000000	      0.00000000	      9.75737191	     -4.36326779	     -5.64404557	     48.80414044	    -21.49844141	    -25.96656084	    149.57729463	     83.11697277	     -1.63754408	      4.32021698	     55.08274299	    -12.17788168	    -26.11166574	    149.70659422	     67.75123006	      8.75189669	      1.14874286
      0.84000000	      0.27335105	     -4.46864479	     92.25432943	      0.23669028	      1.20356771	      0.33123134	     -7.17077520	     -0.77908059	     13.47409780	      2.85733212	      0.04986985	     19.67268681	     -2.52085614	      0.00000000	     -5.96945131	     -2.32762075	     -8.61169047	      4.97426714	      0.08681734	     19.72174469	     10.80855622	      0.00000000	     -0.04218773	      0.14315110	      1.76961808	     -0.07834684	      0.19039096	      1.88021921	     -0.06931022	      0.34805758	      1.88021921	     -0.04821636	      0.34805758	      1.54841582	     -0.03917553	      0.29191372	      1.43781469	     -0.02410607	      0.22174105	      1.32721356	     -0.30134275	      1.61935385	      9.84208490	      0.00000000	      0.00000000	      8.69067790	     -4.41843066	     -5.64327415	     50.85465196	    -21.20834080	    -24.00674928	    149.66603833	     82.33841016	     -1.68229570	      7.16182290	     56.22072060	    -12.15975973	    -25.81065173	    149.78061960	     65.22744035	      8.72807176	      2.51913143
      0.86000000	      0.18392604	     -4.24646930	     92.59890974	      0.23654102	      1.20390765	      0.33318304	     -7.27433999	     -0.79047158	     13.10252721	      2.93859010	      0.05128807	     19.57011357	     -2.63176249	      0.00000000	     -5.96679319	     -2.32266105	     -8.30243486	      5.13653188	      0.08964939	     19.68304103	     10.80423764	      0.00000000	     -0.06390798	      0.15839357	      1.62746760	     -0.11868351	      0.21066345	      1.72918433	     -0.10499442	      0.38511814	      1.72918433	     -0.07304043	      0.38511814	      1.42403415	     -0.05934495	      0.32299618	      1.32231743	     -0.03651702	      0.24535165	      1.22060070	     -0.45648833	      1.79177980	      9.05148657	      0.00000000	      0.00000000	      8.30036548	     -4.11587734	     -3.53354995	     52.61763011	    -20.26696168	    -22.31155352	    149.69667423	     80.99962248	     -0.18764447	      9.27702447	     56.93800852	    -12.26178562	    -27.71305434	    149.82341020	     59.63664807	     12.72998843	      5.24627009
      0.88000000	      0.11126545	     -4.03187054	     92.57923111	      0.23695740	      1.20424093	      0.33482619	     -7.31580305	     -0.81712140	     13.03364457	      3.08644855	      0.05386869	     19.62703561	     -2.63676924	      0.00000000	     -6.06640852	     -2.29080311	     -8.33338817	      5.21464060	      0.09101265	     19.58327157	     10.73862857	      0.00000000	     -0.08355029	      0.14556296	      1.60151787	     -0.15516124	      0.19359874	      1.70161273	     -0.13726477	      0.35392179	      1.70161273	     -0.09548962	      0.35392179	      1.40132813	     -0.07758480	      0.29683199	      1.30123327	     -0.04774063	      0.22547703	      1.20113840	     -0.59679136	      1.64663735	      8.90716191	      0.00000000	      0.00000000	      8.14675085	     -3.91649976	     -3.76058144	     53.45176574	    -19.56547652	    -21.65494735	    149.71722121	     80.98448329	     -0.05825209	      9.40018370	     57.32804175	    -12.08430510	    -27.79409355	    149.84900778	     59.18721741	     13.06214903	      5.03022375
      0.90000000	     -0.07091728	     -3.81515261	     92.84253181	      0.23715153	      1.20459727	      0.33580163	     -7.38691574	     -0.92442067	     12.07000129	      3.34100854	      0.05831160	     20.16014617	     -1.71564827	      0.00000000	     -6.21491257	     -2.14190235	     -7.51437225	      5.23094619	      0.09129723	     19.29519327	      9.82288731	      0.00000000	     -0.11052244	      0.15434627	      1.34204790	     -0.20525122	      0.20528053	      1.42592589	     -0.18157732	      0.37527751	      1.42592589	     -0.12631610	      0.37527751	      1.17429191	     -0.10263114	      0.31474291	      1.09041392	     -0.06315252	      0.23908237	      1.00653593	     -0.78945074	      1.74599583	      7.46406781	      0.00000000	      0.00000000	      8.79127632	     -3.99155949	     -0.79406530	     54.66090446	    -17.85480277	    -19.65196333	    149.71956607	     81.57929018	     -0.54177882	     11.05331761	     57.26149032	    -13.07754195	    -30.03938274	    149.85806819	     55.27398766	     16.26373784	      6.89592351
